<svg width="26" height="26" viewBox="0 0 26 26" fill="none" xmlns="http://www.w3.org/2000/svg">
<path d="M13.5 0.5H12.5C9.3174 0.5 6.26516 1.76428 4.01472 4.01472C1.76428 6.26516 0.5 9.3174 0.5 12.5V13.5C0.5 16.6826 1.76428 19.7348 4.01472 21.9853C6.26516 24.2357 9.3174 25.5 12.5 25.5H13.5C16.6826 25.5 19.7348 24.2357 21.9853 21.9853C24.2357 19.7348 25.5 16.6826 25.5 13.5V12.5C25.5 9.3174 24.2357 6.26516 21.9853 4.01472C19.7348 1.76428 16.6826 0.5 13.5 0.5ZM23.5 13.5C23.5 16.1522 22.4464 18.6957 20.5711 20.5711C18.6957 22.4464 16.1522 23.5 13.5 23.5H12.5C9.84784 23.5 7.3043 22.4464 5.42893 20.5711C3.55357 18.6957 2.5 16.1522 2.5 13.5V12.5C2.5 9.84784 3.55357 7.3043 5.42893 5.42893C7.3043 3.55357 9.84784 2.5 12.5 2.5H13.5C16.1522 2.5 18.6957 3.55357 20.5711 5.42893C22.4464 7.3043 23.5 9.84784 23.5 12.5V13.5Z" fill="#8C8C8C"/>
<path d="M16.7 5.5H14.78C14.2951 5.47512 13.8106 5.55468 13.3592 5.73329C12.9077 5.91189 12.4999 6.18538 12.1633 6.53525C11.8267 6.88511 11.5692 7.3032 11.4082 7.76121C11.2472 8.21922 11.1864 8.70647 11.23 9.19V10.89H9.3C9.21953 10.8926 9.14322 10.9264 9.08723 10.9843C9.03124 11.0421 8.99996 11.1195 9 11.2V13.67C9.0025 13.7488 9.03491 13.8236 9.09064 13.8794C9.14637 13.9351 9.22123 13.9675 9.3 13.97H11.23V20.19C11.23 20.2705 11.2612 20.3479 11.3172 20.4057C11.3732 20.4636 11.4495 20.4974 11.53 20.5H14.05C14.0903 20.5 14.1301 20.4919 14.1672 20.4762C14.2042 20.4605 14.2378 20.4376 14.2657 20.4086C14.2937 20.3797 14.3156 20.3454 14.3301 20.3079C14.3446 20.2703 14.3513 20.2302 14.35 20.19V14H16.61C16.6888 13.9975 16.7636 13.9651 16.8194 13.9094C16.8751 13.8536 16.9075 13.7788 16.91 13.7V11.2C16.91 11.1195 16.8788 11.0421 16.8228 10.9843C16.7668 10.9264 16.6905 10.8926 16.61 10.89H14.35V9.45C14.35 8.76 14.51 8.45 15.41 8.45H16.7C16.7394 8.45 16.7784 8.44224 16.8148 8.42716C16.8512 8.41209 16.8843 8.38999 16.9121 8.36213C16.94 8.33427 16.9621 8.3012 16.9772 8.2648C16.9922 8.22841 17 8.1894 17 8.15V5.81C17.0013 5.76977 16.9946 5.72968 16.9801 5.69212C16.9656 5.65456 16.9437 5.6203 16.9157 5.59137C16.8878 5.56245 16.8542 5.53945 16.8172 5.52375C16.7801 5.50806 16.7403 5.49998 16.7 5.5Z" fill="#8C8C8C"/>
</svg>
