<svg width="24" height="24" viewBox="0 0 24 24" fill="none" xmlns="http://www.w3.org/2000/svg">
<path d="M18.5 7C19.3284 7 20 6.32843 20 5.5C20 4.67157 19.3284 4 18.5 4C17.6716 4 17 4.67157 17 5.5C17 6.32843 17.6716 7 18.5 7Z" fill="#8C8C8C"/>
<path d="M18 24C19.5913 24 21.1174 23.3679 22.2426 22.2426C23.3679 21.1174 24 19.5913 24 18V6C24 4.4087 23.3679 2.88258 22.2426 1.75736C21.1174 0.632141 19.5913 0 18 0H6C4.4087 0 2.88258 0.632141 1.75736 1.75736C0.632141 2.88258 0 4.4087 0 6V18C0 19.5913 0.632141 21.1174 1.75736 22.2426C2.88258 23.3679 4.4087 24 6 24H18ZM2 18V6C2 4.93913 2.42143 3.92172 3.17157 3.17157C3.92172 2.42143 4.93913 2 6 2H18C19.0609 2 20.0783 2.42143 20.8284 3.17157C21.5786 3.92172 22 4.93913 22 6V18C22 19.0609 21.5786 20.0783 20.8284 20.8284C20.0783 21.5786 19.0609 22 18 22H6C4.93913 22 3.92172 21.5786 3.17157 20.8284C2.42143 20.0783 2 19.0609 2 18Z" fill="#8C8C8C"/>
<path d="M12 18C13.1867 18 14.3467 17.6481 15.3334 16.9888C16.3201 16.3295 17.0892 15.3925 17.5433 14.2961C17.9974 13.1997 18.1162 11.9933 17.8847 10.8295C17.6532 9.66557 17.0818 8.59647 16.2426 7.75736C15.4035 6.91824 14.3344 6.3468 13.1705 6.11529C12.0067 5.88378 10.8003 6.0026 9.7039 6.45672C8.60754 6.91085 7.67047 7.67988 7.01118 8.66658C6.35189 9.65327 6 10.8133 6 12C6 13.5913 6.63214 15.1174 7.75736 16.2426C8.88258 17.3679 10.4087 18 12 18ZM12 8C12.7911 8 13.5645 8.2346 14.2223 8.67412C14.8801 9.11365 15.3928 9.73836 15.6955 10.4693C15.9983 11.2002 16.0775 12.0044 15.9231 12.7804C15.7688 13.5563 15.3878 14.269 14.8284 14.8284C14.269 15.3878 13.5563 15.7688 12.7804 15.9231C12.0044 16.0775 11.2002 15.9983 10.4693 15.6955C9.73836 15.3928 9.11365 14.8801 8.67412 14.2223C8.2346 13.5645 8 12.7911 8 12C8 10.9391 8.42143 9.92172 9.17157 9.17157C9.92172 8.42143 10.9391 8 12 8Z" fill="#8C8C8C"/>
</svg>
